<svg width="184" height="183" viewBox="0 0 184 183" fill="none" xmlns="http://www.w3.org/2000/svg">
<path d="M4.80049 2.45275C0.205738 5.51711 -1.03489 11.726 2.02944 16.3208L83.8042 138.936C85.3325 142.502 88.8745 145 93 145C98.5228 145 103 140.523 103 135V97.6508L165.433 178.459C168.81 182.83 175.09 183.635 179.46 180.259C183.831 176.882 184.636 170.602 181.26 166.231L113.396 78.3937C112.882 77.729 112.301 77.1468 111.67 76.6492L151.654 31.5324C155.317 27.3992 154.936 21.079 150.803 17.4159C146.669 13.7529 140.349 14.1341 136.686 18.2674L103 56.2782V24C103 18.4771 98.5228 14 93 14C87.4771 14 83 18.4771 83 24V101.684L18.6685 5.2238C15.6041 0.629047 9.39522 -0.611584 4.80049 2.45275Z" fill="#F34359"/>
</svg>
