<svg width="16" height="16" viewBox="0 0 16 16" fill="none" xmlns="http://www.w3.org/2000/svg">
<path d="M7.74468 3.86666C6.87669 3.86666 6.02819 4.12405 5.30648 4.60629C4.58477 5.08852 4.02226 5.77393 3.69009 6.57585C3.35793 7.37777 3.27102 8.26018 3.44036 9.1115C3.60969 9.96282 4.02767 10.7448 4.64144 11.3586C5.2552 11.9723 6.03718 12.3903 6.8885 12.5596C7.73981 12.729 8.62222 12.6421 9.42415 12.3099C10.2261 11.9777 10.9115 11.4152 11.3937 10.6935C11.8759 9.97181 12.1333 9.12331 12.1333 8.25532C12.132 7.09178 11.6692 5.97627 10.8465 5.15352C10.0237 4.33078 8.90822 3.86798 7.74468 3.86666ZM7.74468 11.6113C7.08092 11.6113 6.43207 11.4145 5.88017 11.0458C5.32828 10.677 4.89813 10.1528 4.64412 9.53961C4.39011 8.92638 4.32364 8.25159 4.45314 7.60059C4.58263 6.94958 4.90226 6.35159 5.37161 5.88225C5.84096 5.4129 6.43895 5.09327 7.08995 4.96377C7.74096 4.83428 8.41574 4.90074 9.02898 5.15475C9.64221 5.40876 10.1664 5.83891 10.5351 6.39081C10.9039 6.9427 11.1007 7.59156 11.1007 8.25532C11.0997 9.14508 10.7458 9.99811 10.1166 10.6273C9.48748 11.2564 8.63445 11.6103 7.74468 11.6113V11.6113ZM7.22837 2.31773V1.02695C7.22837 0.890013 7.28277 0.758687 7.37959 0.66186C7.47642 0.565032 7.60775 0.510635 7.74468 0.510635C7.88162 0.510635 8.01294 0.565032 8.10977 0.66186C8.2066 0.758687 8.26099 0.890013 8.26099 1.02695V2.31773C8.26099 2.45466 8.2066 2.58599 8.10977 2.68282C8.01294 2.77964 7.88162 2.83404 7.74468 2.83404C7.60775 2.83404 7.47642 2.77964 7.37959 2.68282C7.28277 2.58599 7.22837 2.45466 7.22837 2.31773ZM2.26835 3.50912C2.21993 3.46128 2.18145 3.40434 2.15512 3.34157C2.12879 3.2788 2.11513 3.21145 2.11492 3.14338C2.11472 3.07531 2.12798 3.00788 2.15393 2.94496C2.17989 2.88203 2.21803 2.82486 2.26616 2.77673C2.31429 2.7286 2.37147 2.69047 2.43439 2.66452C2.49732 2.63857 2.56476 2.62532 2.63282 2.62553C2.70089 2.62574 2.76824 2.6394 2.83101 2.66574C2.89377 2.69208 2.95071 2.73056 2.99855 2.77899L3.91126 3.69176C3.96008 3.73951 3.99895 3.79646 4.02561 3.85933C4.05228 3.9222 4.0662 3.98974 4.06658 4.05802C4.06696 4.12631 4.0538 4.194 4.02784 4.25716C4.00188 4.32033 3.96365 4.37771 3.91537 4.426C3.86708 4.47429 3.80969 4.51252 3.74653 4.53847C3.68336 4.56443 3.61568 4.5776 3.54739 4.57722C3.4791 4.57684 3.41157 4.56291 3.3487 4.53625C3.28583 4.50959 3.22887 4.47072 3.18113 4.42189L2.26835 3.50912ZM1.80709 8.77163H0.516312C0.379378 8.77163 0.248052 8.71723 0.151224 8.6204C0.054397 8.52358 0 8.39225 0 8.25532C0 8.11838 0.054397 7.98706 0.151224 7.89023C0.248052 7.7934 0.379378 7.739 0.516312 7.739H1.80709C1.94403 7.739 2.07535 7.7934 2.17218 7.89023C2.26901 7.98706 2.3234 8.11838 2.3234 8.25532C2.3234 8.39225 2.26901 8.52358 2.17218 8.6204C2.07535 8.71723 1.94403 8.77163 1.80709 8.77163ZM3.91126 12.0887C3.9592 12.1366 3.99724 12.1935 4.02319 12.2562C4.04914 12.3188 4.06249 12.386 4.06249 12.4538C4.06249 12.5216 4.04914 12.5887 4.02319 12.6514C3.99724 12.714 3.9592 12.7709 3.91126 12.8189L2.99855 13.7316C2.9506 13.7796 2.89368 13.8176 2.83104 13.8436C2.7684 13.8695 2.70125 13.8829 2.63345 13.8829C2.56564 13.8829 2.4985 13.8695 2.43586 13.8436C2.37322 13.8176 2.3163 13.7796 2.26835 13.7316C2.22041 13.6837 2.18238 13.6268 2.15643 13.5641C2.13048 13.5015 2.11712 13.4344 2.11712 13.3665C2.11712 13.2987 2.13048 13.2316 2.15643 13.169C2.18238 13.1063 2.22041 13.0494 2.26835 13.0015L3.18113 12.0887C3.27795 11.9919 3.40927 11.9375 3.54619 11.9375C3.68312 11.9375 3.81443 11.9919 3.91126 12.0887V12.0887ZM8.26099 14.1929V15.4837C8.26099 15.6206 8.2066 15.7519 8.10977 15.8488C8.01294 15.9456 7.88162 16 7.74468 16C7.60775 16 7.47642 15.9456 7.37959 15.8488C7.28277 15.7519 7.22837 15.6206 7.22837 15.4837V14.1929C7.22837 14.056 7.28277 13.9246 7.37959 13.8278C7.47642 13.731 7.60775 13.6766 7.74468 13.6766C7.88162 13.6766 8.01294 13.731 8.10977 13.8278C8.2066 13.9246 8.26099 14.056 8.26099 14.1929ZM13.221 13.0015C13.2694 13.0494 13.3079 13.1063 13.3342 13.1691C13.3606 13.2318 13.3742 13.2992 13.3744 13.3673C13.3746 13.4353 13.3614 13.5028 13.3354 13.5657C13.3095 13.6286 13.2713 13.6858 13.2232 13.7339C13.1751 13.782 13.1179 13.8202 13.055 13.8461C12.992 13.8721 12.9246 13.8853 12.8565 13.8851C12.7885 13.8849 12.7211 13.8712 12.6584 13.8449C12.5956 13.8186 12.5387 13.7801 12.4908 13.7316L11.5781 12.8189C11.5293 12.7711 11.4904 12.7142 11.4637 12.6513C11.4371 12.5884 11.4232 12.5209 11.4228 12.4526C11.4224 12.3843 11.4356 12.3166 11.4615 12.2535C11.4875 12.1903 11.5257 12.1329 11.574 12.0846C11.6223 12.0363 11.6797 11.9981 11.7428 11.9722C11.806 11.9462 11.8737 11.933 11.942 11.9334C12.0103 11.9338 12.0778 11.9477 12.1407 11.9744C12.2035 12.001 12.2605 12.0399 12.3082 12.0887L13.221 13.0015ZM15.4894 8.25532C15.4894 8.39225 15.435 8.52358 15.3381 8.6204C15.2413 8.71723 15.11 8.77163 14.973 8.77163H13.6823C13.5453 8.77163 13.414 8.71723 13.3172 8.6204C13.2204 8.52358 13.166 8.39225 13.166 8.25532C13.166 8.11838 13.2204 7.98706 13.3172 7.89023C13.414 7.7934 13.5453 7.739 13.6823 7.739H14.973C15.11 7.739 15.2413 7.7934 15.3381 7.89023C15.435 7.98706 15.4894 8.11838 15.4894 8.25532ZM11.5781 4.42196C11.5302 4.37401 11.4921 4.31709 11.4662 4.25445C11.4402 4.19181 11.4269 4.12467 11.4269 4.05686C11.4269 3.98905 11.4402 3.92191 11.4662 3.85927C11.4921 3.79663 11.5302 3.73971 11.5781 3.69176L12.4908 2.77899C12.5388 2.73104 12.5957 2.69301 12.6583 2.66706C12.721 2.64111 12.7881 2.62776 12.8559 2.62776C12.9237 2.62776 12.9909 2.64111 13.0535 2.66706C13.1161 2.69301 13.1731 2.73104 13.221 2.77899C13.269 2.82693 13.307 2.88385 13.3329 2.9465C13.3589 3.00914 13.3722 3.07628 13.3722 3.14409C13.3722 3.21189 13.3589 3.27903 13.3329 3.34167C13.307 3.40432 13.269 3.46124 13.221 3.50918L12.3082 4.42189C12.2114 4.51871 12.0801 4.57309 11.9432 4.57309C11.8062 4.57309 11.6749 4.51871 11.5781 4.42189V4.42196Z" fill="black"/>
<ellipse cx="7.74466" cy="8.25532" rx="3.65957" ry="3.65957" fill="#FFD613"/>
</svg>
