<svg width="53" height="43" viewBox="0 0 53 43" fill="none" xmlns="http://www.w3.org/2000/svg">
<g clip-path="url(#clip0)">
<path d="M52.0346 5.01765C50.121 5.86556 48.0654 6.43848 45.9044 6.69744C48.1342 5.36321 49.8024 3.2633 50.5977 0.789521C48.5028 2.03387 46.21 2.90976 43.819 3.3791C42.2111 1.66234 40.0814 0.524435 37.7605 0.142066C35.4397 -0.240304 33.0575 0.154252 30.9839 1.26448C28.9102 2.3747 27.2612 4.13848 26.2926 6.28197C25.3241 8.42546 25.0904 10.8287 25.6277 13.1187C21.3828 12.9056 17.2302 11.8022 13.4393 9.88034C9.64842 7.95845 6.30401 5.26093 3.62312 1.96285C2.70646 3.5441 2.17937 5.37744 2.17937 7.32994C2.17835 9.08764 2.6112 10.8184 3.43951 12.3687C4.26783 13.919 5.46599 15.2409 6.92771 16.217C5.23251 16.1631 3.57471 15.705 2.09229 14.881V15.0185C2.09212 17.4837 2.94487 19.8731 4.50584 21.7812C6.0668 23.6893 8.23985 24.9985 10.6562 25.4868C9.08367 25.9124 7.43494 25.9751 5.83458 25.6701C6.51635 27.7913 7.84436 29.6462 9.63272 30.9752C11.4211 32.3041 13.5802 33.0406 15.8079 33.0814C12.0263 36.05 7.35599 37.6603 2.54833 37.6533C1.69671 37.6535 0.8458 37.6038 0 37.5043C4.88005 40.642 10.5608 42.3072 16.3625 42.3008C36.0021 42.3008 46.7385 26.0345 46.7385 11.927C46.7385 11.4687 46.7271 11.0058 46.7065 10.5474C48.7948 9.03717 50.5975 7.16699 52.03 5.02452L52.0346 5.01765Z" fill="#F34359"/>
</g>
<defs>
<clipPath id="clip0">
<rect width="53" height="43" fill="white"/>
</clipPath>
</defs>
</svg>
