<svg width="60" height="60" viewBox="0 0 60 60" fill="none" xmlns="http://www.w3.org/2000/svg">
<path d="M57 43.5V16.5C57 14.01 54.99 12 52.5 12H10.47C7.97997 12 5.96997 14.01 5.96997 16.5V43.5C5.96997 45.99 7.97997 48 10.47 48H52.5C54.99 48 57 45.99 57 43.5ZM53.07 16.17C54.06 17.16 53.52 18.18 52.98 18.69L40.8 29.85L52.5 42.03C52.86 42.45 53.1 43.11 52.68 43.56C52.29 44.04 51.39 44.01 51 43.71L37.89 32.52L31.47 38.37L25.08 32.52L11.97 43.71C11.58 44.01 10.68 44.04 10.29 43.56C9.86997 43.11 10.11 42.45 10.47 42.03L22.17 29.85L9.98997 18.69C9.44997 18.18 8.90997 17.16 9.89997 16.17C10.89 15.18 11.91 15.66 12.75 16.38L31.47 31.5L50.22 16.38C51.06 15.66 52.08 15.18 53.07 16.17V16.17Z" fill="#192A56"/>
</svg>
