<svg width="55" height="55" viewBox="0 0 55 55" fill="none" xmlns="http://www.w3.org/2000/svg">
<g clip-path="url(#clip0)">
<path d="M55.0003 27.6685C55.0003 12.3854 42.6872 -0.00335693 27.5003 -0.00335693C12.3065 8.05666e-05 -0.0065918 12.3854 -0.0065918 27.672C-0.0065918 41.4804 10.0515 52.9273 23.1965 55.0035V35.6676H16.2184V27.672H23.2034V21.5704C23.2034 14.637 27.3112 10.8076 33.5915 10.8076C36.6028 10.8076 39.7481 11.3473 39.7481 11.3473V18.1535H36.2797C32.8662 18.1535 31.8006 20.2882 31.8006 22.4779V27.6685H39.425L38.2081 35.6641H31.7972V55.0001C44.9422 52.9238 55.0003 41.477 55.0003 27.6685Z" fill="#192A56"/>
</g>
<defs>
<clipPath id="clip0">
<rect width="55" height="55" fill="white"/>
</clipPath>
</defs>
</svg>
