<svg width="46" height="46" viewBox="0 0 46 46" fill="none" xmlns="http://www.w3.org/2000/svg">
<path d="M45.2443 23.642L24.6193 0.725312C23.7508 -0.241771 22.0825 -0.241771 21.2139 0.725312L0.588921 23.642C0.29205 23.9711 0.097186 24.3793 0.0280226 24.8171C-0.0411408 25.2548 0.0183763 25.7032 0.199338 26.1078C0.566004 26.9351 1.38642 27.4668 2.29163 27.4668H6.87496V43.5084C6.87496 44.1162 7.11641 44.6991 7.54618 45.1289C7.97595 45.5587 8.55884 45.8001 9.16663 45.8001H16.0416C16.6494 45.8001 17.2323 45.5587 17.6621 45.1289C18.0919 44.6991 18.3333 44.1162 18.3333 43.5084V34.3418H27.5V43.5084C27.5 44.1162 27.7414 44.6991 28.1712 45.1289C28.6009 45.5587 29.1838 45.8001 29.7916 45.8001H36.6666C37.2744 45.8001 37.8573 45.5587 38.2871 45.1289C38.7169 44.6991 38.9583 44.1162 38.9583 43.5084V27.4668H43.5416C43.9854 27.4687 44.4202 27.3414 44.793 27.1004C45.1657 26.8595 45.4603 26.5153 45.6408 26.1099C45.8213 25.7044 45.8799 25.2552 45.8095 24.817C45.7391 24.3788 45.5427 23.9705 45.2443 23.642Z" fill="#192A56"/>
</svg>
