<svg width="55" height="55" viewBox="0 0 55 55" fill="none" xmlns="http://www.w3.org/2000/svg">
<path d="M34.9421 36.9187L38.7921 33.0687C39.3106 32.5566 39.9667 32.2061 40.6806 32.0596C41.3946 31.9132 42.1357 31.9771 42.8139 32.2437L47.5061 34.1172C48.1916 34.3954 48.7793 34.8703 49.1953 35.482C49.6113 36.0938 49.8369 36.8149 49.8436 37.5547V46.1484C49.8396 46.6516 49.7339 47.1488 49.5326 47.6101C49.3314 48.0713 49.039 48.4871 48.6728 48.8324C48.3067 49.1776 47.8745 49.4452 47.4023 49.619C46.93 49.7928 46.4275 49.8693 45.9249 49.8437C13.0452 47.7984 6.41082 19.9547 5.15613 9.29842C5.09789 8.77512 5.1511 8.24542 5.31227 7.74417C5.47345 7.24291 5.73893 6.78147 6.09124 6.39018C6.44356 5.9989 6.87474 5.68664 7.3564 5.47396C7.83806 5.26128 8.3593 5.153 8.88582 5.15623H17.1874C17.9282 5.15842 18.6514 5.38219 19.264 5.79875C19.8766 6.21531 20.3505 6.80561 20.6249 7.49373L22.4983 12.1859C22.7738 12.8615 22.844 13.6033 22.7004 14.3186C22.5567 15.0339 22.2054 15.691 21.6905 16.2078L17.8405 20.0578C17.8405 20.0578 20.0577 35.0625 34.9421 36.9187Z" fill="#192A56"/>
</svg>
