<svg xmlns="http://www.w3.org/2000/svg" width="128" height="128" fill="none"><rect width="128" height="128" fill="#3178c6" rx="6"/><path fill="#fff" fill-rule="evenodd" d="M74.262 99.468v14.026q3.409 1.752 8.063 2.629t9.81.877q5.025 0 9.548-.964t7.932-3.178a16.2 16.2 0 0 0 5.397-5.786Q117 103.5 117 98.241q0-3.813-1.136-6.684a15.6 15.6 0 0 0-3.278-5.107q-2.141-2.235-5.134-4.01t-6.752-3.353a85 85 0 0 1-4.938-2.213q-2.185-1.074-3.714-2.192-1.53-1.117-2.36-2.367t-.83-2.827q0-1.446.743-2.608c.743-1.162 1.194-1.439 2.097-1.994q1.355-.833 3.321-1.293t4.37-.46q1.748 0 3.693.263 1.944.262 3.911.81 1.966.549 3.824 1.381a21 21 0 0 1 3.43 1.929V54.41q-3.19-1.227-6.97-1.82C103.497 52 101.866 52 98.603 52q-4.982 0-9.44 1.074-4.456 1.073-7.843 3.353a16.7 16.7 0 0 0-5.353 5.807Q74 65.763 74 70.672q0 6.267 3.605 10.694t10.947 7.495q2.884 1.183 5.375 2.323t4.304 2.367c1.814 1.227 2.163 1.71 2.862 2.674q1.05 1.446 1.049 3.287 0 1.359-.655 2.52c-.655 1.161-1.1 1.446-1.988 2.016q-1.334.855-3.322 1.337t-4.654.482q-4.545 0-9.002-1.6t-8.259-4.799m-23.56-34.914H69V53H18v11.554h18.208V116h14.495z" clip-rule="evenodd"/></svg>