<svg width="70" height="70" viewBox="0 0 70 70" fill="none" xmlns="http://www.w3.org/2000/svg">
<g clip-path="url(#clip0_306_12)">
<path d="M64.1667 20.4167H43.75V14.5833H64.1667V20.4167ZM69.2008 49.5833C67.9117 53.3663 63.2829 58.3333 54.3229 58.3333C45.3571 58.3333 38.0946 53.2904 38.0946 41.7813C38.0946 30.3771 44.8758 24.5146 54.0371 24.5146C63.0263 24.5146 68.5154 29.7121 69.7142 37.4238C69.9417 38.8996 70.0321 40.8888 69.9913 43.6654H46.5792C46.9583 53.0308 56.7379 53.3254 59.9608 49.5833H69.2008ZM46.7833 37.9167H61.2646C60.9583 33.4046 57.9513 31.4446 54.04 31.4446C49.7642 31.4446 47.3988 33.6846 46.7833 37.9167ZM18.8592 58.2983H0V14.6446H20.2796C36.2513 14.8808 36.5546 30.5229 28.2129 34.7871C38.3075 38.4621 38.6458 58.2983 18.8592 58.2983V58.2983ZM8.75 32.0833H19.2033C26.5183 32.0833 27.6792 23.3333 18.2933 23.3333H8.75V32.0833V32.0833ZM18.6404 40.8333H8.75V49.63H18.4946C27.405 49.63 26.8596 40.8333 18.6404 40.8333V40.8333Z" fill="#F34359"/>
</g>
<defs>
<clipPath id="clip0_306_12">
<rect width="70" height="70" fill="white"/>
</clipPath>
</defs>
</svg>
