<svg width="389" height="372" viewBox="0 0 389 372" fill="none" xmlns="http://www.w3.org/2000/svg">
<path fill-rule="evenodd" clip-rule="evenodd" d="M181.546 7.59608C216.568 17.1632 234.065 53.9115 263.289 75.4438C292.198 96.7439 330.989 103.195 351.391 132.737C376.052 168.447 395.365 212.041 387.032 254.625C378.33 299.093 347.038 339.292 306.862 360.285C268.912 380.115 223.492 370.615 181.546 361.995C146.815 354.857 118.053 335.504 88.8046 315.472C58.6033 294.787 23.702 277.452 9.10778 243.892C-6.16199 208.779 0.585196 169.207 8.94948 131.844C18.1237 90.8637 25.1998 44.2614 59.2932 19.7183C93.3556 -4.80243 141.053 -3.46536 181.546 7.59608Z" fill="url(#paint0_linear)" fill-opacity="0.88"/>
<circle cx="349.5" cy="39.5" r="39.5" fill="url(#paint1_radial)"/>
<defs>
<linearGradient id="paint0_linear" x1="194.5" y1="0" x2="360.188" y2="635.156" gradientUnits="userSpaceOnUse">
<stop stop-color="#F45A6D"/>
<stop offset="1" stop-color="#F45A6D" stop-opacity="0"/>
</linearGradient>
<radialGradient id="paint1_radial" cx="0" cy="0" r="1" gradientUnits="userSpaceOnUse" gradientTransform="translate(349.5 39.5) rotate(89.7813) scale(76.6598)">
<stop stop-color="#F45A6D"/>
<stop offset="1" stop-color="#F45A6D" stop-opacity="0"/>
</radialGradient>
</defs>
</svg>
