<svg width="280" height="280" viewBox="0 0 280 280" fill="none" xmlns="http://www.w3.org/2000/svg">
<g clip-path="url(#clip0)">
<path d="M140 17.5C62.6719 17.5 -2.08126e-05 68.4141 -2.08126e-05 131.25C-2.08126e-05 157.281 10.8828 181.125 28.9297 200.32C20.7812 221.867 3.8281 240.133 3.55467 240.352C-0.0547083 244.18 -1.03908 249.758 1.03904 254.57C3.11717 259.383 7.87498 262.5 13.125 262.5C46.7578 262.5 73.2812 248.445 89.1953 237.18C105 242.156 122.062 245 140 245C217.328 245 280 194.086 280 131.25C280 68.4141 217.328 17.5 140 17.5ZM140 218.75C125.398 218.75 110.961 216.508 97.125 212.133L84.7109 208.195L74.0468 215.742C66.2265 221.266 55.5078 227.445 42.6015 231.602C46.5937 224.984 50.4765 217.547 53.4843 209.617L59.2812 194.25L48.0156 182.328C38.1172 171.773 26.25 154.328 26.25 131.25C26.25 83.0156 77.2734 43.75 140 43.75C202.727 43.75 253.75 83.0156 253.75 131.25C253.75 179.484 202.727 218.75 140 218.75Z" fill="white"/>
</g>
<defs>
<clipPath id="clip0">
<rect width="280" height="280" fill="white"/>
</clipPath>
</defs>
</svg>
