<svg width="55" height="55" viewBox="0 0 55 55" fill="none" xmlns="http://www.w3.org/2000/svg">
<path d="M27.5 0C20.2065 0 13.2118 2.89731 8.05456 8.05456C2.89731 13.2118 0 20.2065 0 27.5C0 34.7935 2.89731 41.7882 8.05456 46.9454C13.2118 52.1027 20.2065 55 27.5 55C34.7935 55 41.7882 52.1027 46.9454 46.9454C52.1027 41.7882 55 34.7935 55 27.5C55 20.2065 52.1027 13.2118 46.9454 8.05456C41.7882 2.89731 34.7935 0 27.5 0V0ZM34.7485 49.9194H34.5354C34.3753 49.9284 34.2151 49.9046 34.0645 49.8495C33.914 49.7943 33.7763 49.7089 33.66 49.5985C33.5525 49.4849 33.4688 49.351 33.4137 49.2046C33.3586 49.0582 33.3332 48.9023 33.3392 48.746V45.524C33.3529 44.4538 33.3621 43.3698 33.3621 42.279C33.3583 41.4813 33.2418 40.6882 33.016 39.9231C32.8021 39.1498 32.3711 38.4539 31.774 37.9179C33.3712 37.7637 34.9414 37.4008 36.4444 36.8385C37.7122 36.3564 38.8589 35.6023 39.804 34.6294C40.7367 33.6508 41.431 32.4683 41.8321 31.1781C42.3199 29.5981 42.552 27.9502 42.5196 26.2969C42.5285 25.1425 42.3266 23.9962 41.9238 22.9144C41.5144 21.824 40.8955 20.8244 40.1019 19.9719C40.2732 19.5419 40.3977 19.0948 40.4731 18.6381C40.5487 18.1798 40.5877 17.7169 40.5877 17.254C40.5877 16.6581 40.519 16.0623 40.3815 15.4825C40.2565 14.8878 40.0872 14.3033 39.875 13.734C39.794 13.7024 39.7076 13.6868 39.6206 13.6881H39.3685C38.8415 13.6927 38.3235 13.7798 37.824 13.9425C37.2737 14.1031 36.7353 14.3022 36.2129 14.5383C35.6934 14.7712 35.1876 15.0336 34.6981 15.3244C34.2054 15.6154 33.77 15.895 33.385 16.154C29.5298 15.0795 25.4542 15.0795 21.599 16.154C21.169 15.8665 20.7319 15.5899 20.2881 15.3244C19.7917 15.0312 19.2773 14.7694 18.7481 14.5406C18.2271 14.2967 17.6867 14.0966 17.1325 13.9425C16.6428 13.7807 16.1311 13.6949 15.6154 13.6881H15.3633C15.2771 13.6869 15.1915 13.7025 15.1112 13.734C14.896 14.3041 14.7199 14.8883 14.5842 15.4825C14.4604 16.0646 14.4008 16.6581 14.3985 17.254C14.3985 17.7169 14.4375 18.1798 14.5154 18.6381C14.591 19.0942 14.7125 19.541 14.8821 19.9719C14.0905 20.8255 13.4739 21.8259 13.0671 22.9167C12.6621 23.9981 12.4579 25.1444 12.4644 26.2992C12.4323 27.9436 12.6581 29.5829 13.1335 31.1575C13.5483 32.4477 14.2404 33.6325 15.1594 34.6317C16.1104 35.5988 17.2563 36.3504 18.519 36.8408C20.0154 37.4138 21.5829 37.7804 23.1779 37.9317C22.7326 38.3353 22.3793 38.83 22.1421 39.3823C21.9164 39.9285 21.7624 40.5016 21.6838 41.0873C20.8429 41.4899 19.9233 41.7012 18.991 41.706C18.1253 41.7407 17.2708 41.5 16.5504 41.0185C15.8593 40.5064 15.2741 39.8651 14.8271 39.1302C14.627 38.8215 14.4033 38.5288 14.1579 38.2548C13.899 37.9666 13.6136 37.7034 13.3054 37.4688C13.0016 37.2418 12.6686 37.0568 12.3154 36.9188C11.9679 36.7664 11.5926 36.6876 11.2131 36.6873C11.1215 36.6896 11.0298 36.6987 10.9381 36.7102C10.8129 36.7098 10.6882 36.7252 10.5669 36.756C10.4602 36.784 10.3594 36.8305 10.269 36.8935C10.2278 36.9162 10.1935 36.9493 10.1693 36.9896C10.1452 37.0298 10.1321 37.0758 10.1315 37.1227C10.1411 37.233 10.1748 37.3398 10.2302 37.4357C10.2857 37.5315 10.3615 37.614 10.4523 37.6773C10.6654 37.8469 10.8419 37.9775 10.984 38.0692L11.0527 38.1173C11.3575 38.3533 11.6508 38.6077 11.9281 38.8804C12.1848 39.105 12.4163 39.3594 12.6156 39.6367C12.8219 39.9094 13.0006 40.2004 13.145 40.5098C13.3123 40.8169 13.4888 41.1698 13.6744 41.5708C14.1052 42.6571 14.8706 43.576 15.8606 44.1948C16.8988 44.7517 18.0629 45.029 19.2431 44.9992C19.6419 44.9992 20.0429 44.9763 20.4394 44.9304C20.8335 44.8663 21.2254 44.7998 21.6196 44.7219V48.7163C21.6267 48.8773 21.5998 49.0381 21.5406 49.188C21.4813 49.3379 21.3911 49.4737 21.2758 49.5863C21.1605 49.699 21.0228 49.7861 20.8715 49.8419C20.7203 49.8977 20.559 49.921 20.3981 49.9102H20.256C14.912 48.1838 10.3599 44.6061 7.41943 39.8214C4.47899 35.0367 3.34346 29.3594 4.21731 23.8117C5.09116 18.2641 7.91696 13.2108 12.1859 9.56166C16.4548 5.91254 21.8863 3.90745 27.5023 3.90745C33.1183 3.90745 38.5498 5.91254 42.8187 9.56166C47.0876 13.2108 49.9134 18.2641 50.7873 23.8117C51.6611 29.3594 50.5256 35.0367 47.5852 39.8214C44.6447 44.6061 40.0926 48.1838 34.7485 49.9102V49.9217V49.9194Z" fill="#192A56"/>
</svg>
