<svg width="55" height="55" viewBox="0 0 55 55" fill="none" xmlns="http://www.w3.org/2000/svg">
<path d="M27.5 0C12.312 0 0 12.312 0 27.5C0 42.688 12.312 55 27.5 55C42.688 55 55 42.688 55 27.5C55 12.312 42.688 0 27.5 0ZM20.7682 38.8982H15.1995V20.9773H20.7682V38.8982ZM17.9495 18.7773C16.1906 18.7773 15.0534 17.5312 15.0534 15.9901C15.0534 14.4174 16.225 13.2086 18.0211 13.2086C19.8172 13.2086 20.9172 14.4174 20.9516 15.9901C20.9516 17.5312 19.8172 18.7773 17.9495 18.7773ZM41.1068 38.8982H35.538V28.9667C35.538 26.6549 34.7302 25.0852 32.7164 25.0852C31.1781 25.0852 30.2643 26.1479 29.8604 27.1706C29.7115 27.5344 29.6742 28.05 29.6742 28.5628V38.8953H24.1026V26.6922C24.1026 24.455 24.031 22.5844 23.9565 20.9745H28.7948L29.0497 23.4638H29.1615C29.8948 22.2951 31.6909 20.5706 34.6958 20.5706C38.3596 20.5706 41.1068 23.0255 41.1068 28.3021V38.8982Z" fill="#F34359"/>
</svg>
